<?xml version="1.0" ?><svg style="enable-background:new 0 0 64 64;" version="1.1" viewBox="0 0 64 64" xml:space="preserve" xmlns="http://www.w3.org/2000/svg" xmlns:xlink="http://www.w3.org/1999/xlink"><style type="text/css">
	.st0{fill:#231F20;}
	.st1{fill:none;stroke:#000000;stroke-width:2;stroke-linecap:round;stroke-linejoin:round;stroke-miterlimit:10;}
</style><g id="FB"/><g id="ig"/><g id="yt"/><g id="twitter"><g><path d="M21.9,57.6c-7.2,0-14.3-2-20.4-5.8c-0.4-0.3-0.6-0.7-0.4-1.2c0.2-0.4,0.6-0.7,1.1-0.6c1.2,0.2,2.4,0.3,3.5,0.3    c4.5,0,8.8-1.2,12.6-3.6c-4.6-1-8.4-4.4-9.8-9.1c-0.1-0.3,0-0.7,0.2-1s0.6-0.4,0.9-0.3c0.3,0.1,0.6,0.1,1,0.1    c-0.9-0.5-1.7-1.2-2.4-1.9c-2.6-2.5-4-5.9-4-9.5l0-0.2c0-0.4,0.2-0.7,0.5-0.9c0.3-0.2,0.7-0.2,1,0c0.4,0.2,0.8,0.4,1.2,0.6    c-0.8-1-1.4-2.1-1.8-3.3c-0.6-1.5-0.9-3.1-0.9-4.8c0-0.7,0.1-1.4,0.2-2.1c0.3-1.8,0.9-3.5,1.9-5C6.3,9,6.6,8.9,6.9,8.8    c0.3,0,0.6,0.1,0.8,0.3c0.9,1,1.9,2,2.9,2.9c0.5,0.5,1,0.9,1.6,1.3c3,2.5,6.4,4.4,10,5.9c0.5,0.2,0.9,0.4,1.4,0.5    c1.6,0.6,3.3,1.1,5,1.4c0.4,0.1,0.8,0.2,1.2,0.2l0.5,0.1c0.3,0,0.6,0.1,0.9,0.1c-0.1-0.6-0.1-1.2-0.1-1.8c0-4.3,2.1-8.4,5.7-10.9    c0.2-0.2,0.5-0.3,0.7-0.5c0,0,0,0,0,0c0,0,0,0,0,0c2.1-1.3,4.5-1.9,6.9-1.9c3.5,0,7,1.4,9.5,3.9c0.6-0.1,1.3-0.3,1.9-0.5    c0.8-0.2,1.6-0.5,2.4-0.9c0.9-0.4,1.9-0.8,2.7-1.3c0.4-0.2,0.8-0.2,1.1,0.1c0.3,0.3,0.5,0.7,0.3,1.1c-0.5,1.6-1.4,3.1-2.5,4.5    c-0.1,0.1-0.1,0.1-0.2,0.2c0.7-0.2,1.3-0.4,2-0.7c0.5-0.2,1,0,1.2,0.4c0.2,0.4,0.2,1-0.2,1.3c-0.8,0.7-1.7,1.4-2.6,2    c-0.7,0.5-1.3,0.9-2,1.3c0,0.7,0,1.3,0,2c0,11.4-4.8,22.4-13.2,30.1c0,0-0.1,0-0.1,0.1C38.1,55,30.2,57.6,21.9,57.6z M6.4,52.2    c4.8,2.2,10.1,3.4,15.5,3.4c7.8,0,15.3-2.4,21.6-7c8-7.3,12.5-17.8,12.5-28.6c0-0.8,0-1.7-0.1-2.5c0-0.4,0.2-0.7,0.5-0.9    c0.2-0.1,0.4-0.2,0.6-0.4c0,0-0.1,0-0.1,0c-0.2,0-0.3,0-0.5,0.1c-0.2,0.1-0.5,0.2-0.8,0.1c-0.3-0.1-0.5-0.3-0.6-0.6    c-0.1-0.3-0.1-0.6,0.1-0.9c0.1-0.2,0.4-0.4,0.7-0.5c0.1-0.1,0.3-0.2,0.4-0.3c0.8-0.6,1.5-1.2,2.2-2c0.4-0.4,0.7-0.9,1-1.3    c-0.1,0.1-0.2,0.1-0.4,0.2c-0.9,0.4-1.7,0.7-2.6,0.9c-0.8,0.3-1.7,0.5-2.6,0.6c-0.3,0.1-0.7-0.1-0.9-0.3c-2.1-2.3-5.2-3.7-8.4-3.7    c-2,0-3.9,0.5-5.6,1.4c0,0-0.1,0.1-0.1,0.1c-0.2,0.2-0.4,0.3-0.6,0.3c-0.1,0.1-0.2,0.1-0.3,0.2c-3,2.1-4.8,5.6-4.8,9.3    c0,0.9,0.1,1.8,0.3,2.7c0.1,0.3,0,0.6-0.2,0.9c-0.2,0.2-0.5,0.4-0.9,0.3c-0.8-0.1-1.6-0.2-2.3-0.3l-0.5-0.1    c-0.4-0.1-0.8-0.2-1.3-0.2c-1.8-0.4-3.6-0.9-5.3-1.5c-0.5-0.2-1-0.4-1.4-0.5c-3.8-1.5-7.4-3.6-10.6-6.2c-0.6-0.4-1.1-0.9-1.6-1.4    c-0.7-0.6-1.4-1.3-2.1-2c-0.5,1-0.8,2-1,3.1c-0.1,0.6-0.1,1.2-0.1,1.7c0,1.4,0.2,2.8,0.7,4c0.8,2,2.1,3.7,3.8,5    c0.4,0.3,0.5,0.7,0.3,1.2c-0.2,0.4-0.6,0.7-1,0.6c-1.3-0.1-2.5-0.4-3.7-0.9c0.3,2.5,1.4,4.9,3.3,6.7c1.5,1.5,3.4,2.5,5.4,3    c0.4,0.1,0.8,0.5,0.8,1c0,0.5-0.3,0.9-0.8,1c-1.3,0.3-2.7,0.5-4.1,0.4c1.8,3.9,5.7,6.4,10.1,6.5c0.4,0,0.8,0.3,0.9,0.7    c0.1,0.4,0,0.8-0.3,1.1C17.2,50.1,12,52,6.4,52.2z M44.2,49.3L44.2,49.3L44.2,49.3z"/></g></g><g id="snapchat"/><g id="WA"/><g id="Pinterrest"/><g id="LinkedIn"/><g id="Messenger"/><g id="Tiktok"/><g id="VK"/><g id="Thumblr"/><g id="OK.ru"/><g id="Weibo"/></svg>